<svg width="87" height="56" viewBox="0 0 87 56" fill="none" xmlns="http://www.w3.org/2000/svg">
<path d="M43.6506 54.9783C66.7102 54.9783 85.4037 43.022 85.4037 28.2733C85.4037 13.5245 66.7102 1.56833 43.6506 1.56833C20.591 1.56833 1.89752 13.5245 1.89752 28.2733C1.89752 43.022 20.591 54.9783 43.6506 54.9783Z" fill="#494949" stroke="black" stroke-width="2" stroke-miterlimit="10"/>
<path d="M33.4773 28.2733C35.8184 28.2733 37.7162 26.3755 37.7162 24.0344C37.7162 21.6933 35.8184 19.7955 33.4773 19.7955C31.1362 19.7955 29.2384 21.6933 29.2384 24.0344C29.2384 26.3755 31.1362 28.2733 33.4773 28.2733Z" fill="black"/>
<path d="M50.4329 28.2733C52.7739 28.2733 54.6718 26.3755 54.6718 24.0344C54.6718 21.6933 52.7739 19.7955 50.4329 19.7955C48.0918 19.7955 46.194 21.6933 46.194 24.0344C46.194 26.3755 48.0918 28.2733 50.4329 28.2733Z" fill="black"/>
<path d="M33.4772 27.4255C35.3501 27.4255 36.8683 25.9072 36.8683 24.0344C36.8683 22.1615 35.3501 20.6433 33.4772 20.6433C31.6044 20.6433 30.0861 22.1615 30.0861 24.0344C30.0861 25.9072 31.6044 27.4255 33.4772 27.4255Z" fill="white"/>
<path d="M50.4328 27.4255C52.3056 27.4255 53.8239 25.9072 53.8239 24.0344C53.8239 22.1615 52.3056 20.6433 50.4328 20.6433C48.5599 20.6433 47.0417 22.1615 47.0417 24.0344C47.0417 25.9072 48.5599 27.4255 50.4328 27.4255Z" fill="white"/>
<path d="M33.8414 26.3658C34.7778 26.3658 35.5369 25.6067 35.5369 24.6703C35.5369 23.7339 34.7778 22.9747 33.8414 22.9747C32.9049 22.9747 32.1458 23.7339 32.1458 24.6703C32.1458 25.6067 32.9049 26.3658 33.8414 26.3658Z" fill="black"/>
<path d="M50.4328 26.0941C51.3692 26.0941 52.1283 25.335 52.1283 24.3986C52.1283 23.4622 51.3692 22.7031 50.4328 22.7031C49.4963 22.7031 48.7372 23.4622 48.7372 24.3986C48.7372 25.335 49.4963 26.0941 50.4328 26.0941Z" fill="black"/>
<path d="M28.3906 41.4139C41.1073 42.4736 45.1342 43.1095 50.2209 41.4139C53.612 40.3542 62.3017 34.4197 62.3017 34.4197" stroke="white" stroke-miterlimit="10"/>
</svg>
